<svg width="77" height="45" viewBox="0 0 77 45" fill="none" xmlns="http://www.w3.org/2000/svg">
<path fill-rule="evenodd" clip-rule="evenodd" d="M6.55819 9.51901C12.0332 3.87401 18.8932 0.634009 26.5432 0.0640088C28.1282 -0.0509912 31.1082 0.0240088 32.7832 0.229009C36.6032 0.694009 40.2332 1.76401 43.4832 3.38901C45.0282 4.15901 47.8082 5.90901 49.4032 7.11401C50.8282 8.18901 53.0232 10.524 54.4132 12.449C55.2332 13.584 57.2482 14.494 60.0582 15.004C61.5732 15.274 64.6982 15.334 66.4832 15.129C69.3982 14.789 70.8982 14.249 73.2782 12.664C75.0632 11.479 75.5882 11.209 76.0782 11.204C76.6082 11.204 76.7182 11.534 76.6882 13.104C76.6582 14.829 76.5182 15.819 76.0232 17.789C74.5582 23.599 71.4332 28.879 66.6882 33.549C64.2382 35.959 62.0332 37.644 58.2782 39.969C57.2182 40.629 54.6282 41.974 53.5832 42.419C52.8082 42.744 50.4932 43.569 49.7832 43.774C44.8082 45.204 40.1782 45.369 35.6482 44.289C32.9082 43.639 30.6732 42.749 26.0632 40.494C19.2132 37.139 16.1782 36.124 12.1782 35.844C10.0082 35.694 7.89319 35.939 6.08819 36.554C5.11819 36.884 4.58319 37.144 3.02819 38.044C1.78319 38.759 1.54819 38.839 1.43819 38.559C1.31819 38.249 1.37319 35.799 1.53319 34.379C2.21319 28.294 4.92319 21.974 9.12819 16.669C10.4032 15.054 13.2332 12.204 14.7082 11.039C19.1282 7.54401 23.8032 5.30901 29.1482 4.13901C33.4182 3.20401 37.9082 3.12901 41.6282 3.93401C42.7582 4.17901 43.0582 4.13901 42.1082 3.87401C41.7632 3.77901 41.2782 3.63401 41.0282 3.54901C39.5032 3.04901 36.2532 2.33901 34.1432 2.04901C32.4632 1.81401 28.2932 1.73401 26.5082 1.89401C21.5282 2.34901 16.6832 4.00901 12.8332 6.58901C8.94819 9.18401 6.25319 11.899 2.17319 17.319C0.863189 19.064 0.39319 19.569 0.0781901 19.569C-0.11681 19.569 0.0431883 19.084 0.668188 17.789C1.95319 15.129 4.24819 11.904 6.55319 9.53401L6.55819 9.51901ZM14.7932 14.304C19.8032 9.59901 26.7182 6.45901 33.6132 5.74901C35.1032 5.59901 38.6882 5.61901 39.9332 5.78401C45.3482 6.51401 49.0132 8.48401 52.0882 12.324C52.5132 12.854 53.1182 13.544 53.4382 13.859C54.6982 15.104 56.6682 15.934 59.6382 16.464C60.1682 16.559 61.3532 16.609 63.1182 16.609C66.0582 16.609 66.8082 16.519 68.9532 15.894C69.5682 15.714 70.1632 15.544 70.2632 15.514C70.3682 15.484 70.4532 15.514 70.4532 15.584C70.4532 15.704 69.3382 16.459 66.5432 18.214C62.3632 20.849 55.9132 25.464 54.4182 26.894C53.9082 27.384 53.8632 27.619 54.1482 28.254L54.3332 28.659L55.3532 27.979C55.9132 27.604 57.1882 26.699 58.1932 25.959C59.1932 25.224 60.4932 24.289 61.0832 23.884C61.6732 23.479 63.0682 22.514 64.1882 21.739C65.3082 20.964 66.7782 19.954 67.4532 19.494C69.2382 18.279 69.9232 17.694 71.3532 16.154C72.6182 14.794 75.2732 12.314 76.0482 11.769C76.5032 11.449 76.6482 11.484 76.4132 11.854C76.3282 11.989 75.9332 13.139 75.5382 14.409C74.6082 17.399 73.8232 19.444 72.8382 21.404C69.6582 27.759 64.9782 32.864 58.9382 36.549C56.2482 38.194 52.8982 39.424 49.8382 39.899C48.5332 40.104 45.1532 40.079 43.6832 39.854C39.4532 39.214 36.1782 37.954 30.0832 34.644C28.2882 33.669 25.2082 32.154 23.9032 31.604C18.7232 29.424 14.1382 29.059 9.90319 30.479C8.54319 30.934 6.95319 31.679 6.95319 31.854C6.95319 31.884 6.95319 31.909 6.96319 31.924C7.00319 31.984 7.21319 31.924 8.38319 31.629C13.5632 30.319 18.2132 31.029 24.5732 34.089C25.5182 34.544 27.4332 35.529 28.8382 36.279C33.6732 38.869 35.6332 39.779 38.0732 40.584C41.2732 41.639 42.8982 41.924 46.2032 42.014L48.6682 42.079L47.8082 42.269C45.1432 42.859 41.4732 43.124 39.2882 42.889C35.1282 42.439 32.5982 41.564 26.1332 38.334C20.3232 35.434 16.4582 34.174 12.5182 33.899C9.49319 33.689 6.79819 34.174 4.45819 35.349C4.05319 35.554 3.70819 35.704 3.68819 35.679C3.66819 35.659 3.71319 35.204 3.79319 34.669C4.91819 27.179 8.88319 19.844 14.8032 14.284L14.7932 14.304ZM28.7932 28.864V21.209C28.7932 15.019 28.8182 13.554 28.9332 13.554C29.0082 13.554 29.3332 13.714 29.6582 13.904L30.2432 14.254L30.2982 21.694C30.3282 25.804 30.3132 29.194 30.2582 29.269C30.1482 29.429 29.7782 29.354 29.1982 29.064L28.7982 28.864H28.7932ZM32.6482 26.989C32.5532 26.739 32.6132 16.469 32.7082 16.154C32.7282 16.079 32.8632 16.019 33.0032 16.019C33.1432 16.019 34.7432 16.904 36.5632 17.979C38.3832 19.059 40.4632 20.274 41.1832 20.679C41.8982 21.084 42.5082 21.499 42.5382 21.604C42.6132 21.889 42.3482 22.174 41.7282 22.499C41.1932 22.774 39.8432 23.564 36.6632 25.444C33.6982 27.199 33.3082 27.399 33.0182 27.329C32.8632 27.289 32.6982 27.144 32.6432 26.994L32.6482 26.989Z" fill="#E56DB1"/>
</svg>
