<svg width="167" height="120" viewBox="0 0 167 120" fill="none" xmlns="http://www.w3.org/2000/svg">
<path d="M136.449 6H30.5514C18.6489 6 9 15.7018 9 27.6696V92.3304C9 104.298 18.6489 114 30.5514 114H136.449C148.351 114 158 104.298 158 92.3304V27.6696C158 15.7018 148.351 6 136.449 6Z" fill="#E56DB1"/>
<path d="M70.6875 37.6953C80.9375 43.6434 91.1875 49.5886 101.437 55.5367C104.854 57.5204 104.854 62.4767 101.437 64.4604C91.1875 70.4085 80.9375 76.3537 70.6875 82.3018C67.2708 84.2855 63 81.8059 63 77.8414V42.1586C63 38.1941 67.2708 35.7145 70.6875 37.6982V37.6953Z" fill="white"/>
</svg>
