<svg width="60" height="60" viewBox="0 0 60 60" fill="none" xmlns="http://www.w3.org/2000/svg">
<rect x="0.5" y="0.5" width="59" height="59" rx="29.5" stroke="#363636"/>
<path d="M39.7071 24.2071C40.0976 23.8166 40.0976 23.1834 39.7071 22.7929C39.3166 22.4024 38.6834 22.4024 38.2929 22.7929L39.7071 24.2071ZM25 36.5C25 37.0523 25.4477 37.5 26 37.5L35 37.5C35.5523 37.5 36 37.0523 36 36.5C36 35.9477 35.5523 35.5 35 35.5L27 35.5L27 27.5C27 26.9477 26.5523 26.5 26 26.5C25.4477 26.5 25 26.9477 25 27.5L25 36.5ZM38.2929 22.7929L25.2929 35.7929L26.7071 37.2071L39.7071 24.2071L38.2929 22.7929Z" fill="#999999"/>
</svg>
