<svg width="67" height="67" viewBox="0 0 67 67" fill="none" xmlns="http://www.w3.org/2000/svg">
<rect x="0.5" y="0.5" width="66" height="66" rx="33" stroke="#999999"/>
<path d="M24.5 32.5C23.9477 32.5 23.5 32.9477 23.5 33.5C23.5 34.0523 23.9477 34.5 24.5 34.5L24.5 32.5ZM43.2071 34.2071C43.5976 33.8166 43.5976 33.1834 43.2071 32.7929L36.8431 26.4289C36.4526 26.0384 35.8195 26.0384 35.4289 26.4289C35.0384 26.8195 35.0384 27.4526 35.4289 27.8431L41.0858 33.5L35.4289 39.1569C35.0384 39.5474 35.0384 40.1805 35.4289 40.5711C35.8195 40.9616 36.4526 40.9616 36.8431 40.5711L43.2071 34.2071ZM24.5 34.5L42.5 34.5L42.5 32.5L24.5 32.5L24.5 34.5Z" fill="#999999"/>
</svg>
