<svg width="24" height="24" viewBox="0 0 24 24" fill="none" xmlns="http://www.w3.org/2000/svg">
<g clip-path="url(#clip0_4_323)">
<path d="M19.4399 24.0003C19.2383 24.0003 19.1088 23.9624 19.0246 23.879C18.9172 23.7733 18.8962 23.6076 18.8984 23.3729C18.9095 21.6353 18.9083 19.8688 18.9072 18.1602C18.9072 17.3793 18.9072 16.5995 18.9072 15.8186C18.9072 15.1856 18.8751 14.3535 18.6116 13.5359C18.3314 12.6671 17.7622 12.1821 16.8708 12.0553C15.9362 11.9218 15.1433 12.0987 14.5785 12.5648C13.9717 13.0665 13.6207 13.9064 13.562 14.9932C13.4723 16.6829 13.4867 18.4049 13.5011 20.069C13.5088 20.9345 13.5166 21.83 13.5088 22.7099V22.7366C13.4989 23.9636 13.4756 23.9869 12.2531 23.9869C11.9474 23.9903 11.6352 23.9869 11.3262 23.9847C10.5555 23.9825 9.75927 23.9802 8.97747 23.9936C8.77482 23.9969 8.62089 23.9791 8.52123 23.8812C8.43707 23.7989 8.40053 23.6699 8.40164 23.463C8.41492 18.643 8.41492 13.5771 8.40164 8.40777C8.40164 8.20865 8.43707 8.08406 8.5168 8.00508C8.61757 7.90497 8.78036 7.89273 8.93982 7.89496C10.2432 7.91164 11.551 7.91164 12.8267 7.89496C13.0315 7.89162 13.1511 7.9261 13.2287 8.00731C13.304 8.08629 13.3339 8.2042 13.325 8.39108C13.3073 8.74928 13.3106 9.10636 13.315 9.52128C13.3161 9.65811 13.3172 9.80049 13.3184 9.94956C14.2375 8.62358 15.3925 7.86381 16.8442 7.63132C18.3436 7.39104 19.6558 7.51785 20.8562 8.02066C22.2958 8.62246 23.2105 9.80717 23.6545 11.6426C23.8671 12.5203 23.9779 13.4692 23.9834 14.4614C23.9923 15.971 23.9912 17.5061 23.9912 18.99C23.9912 20.4373 23.9912 21.9345 23.9989 23.4062C24 23.6176 23.9801 23.78 23.876 23.8823C23.7885 23.968 23.6501 24.0036 23.4275 23.9992C22.0057 23.9669 20.7167 23.968 19.4864 24.0003C19.4698 24.0003 19.4543 24.0003 19.4388 24.0003H19.4399Z" fill="#999999"/>
<path d="M4.83263 23.9985C4.80827 23.9985 4.78391 23.9985 4.75844 23.9985C3.35651 23.9641 1.94683 23.9785 0.874895 23.9952C0.666709 23.9985 0.543791 23.9652 0.462953 23.8862C0.382115 23.8061 0.347787 23.6826 0.348894 23.4746C0.361075 18.025 0.359968 13.1037 0.34668 8.42941C0.34668 8.22027 0.383223 8.09124 0.466275 8.00781C0.565939 7.9088 0.718756 7.891 0.915867 7.89323C2.43628 7.91436 3.70533 7.91325 4.91125 7.891C5.12719 7.88656 5.25564 7.92104 5.3387 8.00336C5.42286 8.08679 5.45719 8.21471 5.45497 8.44387C5.44279 10.3249 5.4439 12.2383 5.445 14.0893C5.445 14.7056 5.445 15.3218 5.445 15.9381C5.445 16.5866 5.4439 17.2352 5.44279 17.8848C5.43947 19.6669 5.43615 21.509 5.4594 23.3211C5.46272 23.5981 5.42064 23.7605 5.31655 23.8639C5.20803 23.9718 5.04303 23.9996 4.83042 23.9996L4.83263 23.9985Z" fill="#999999"/>
<path d="M2.90906 5.88681C2.90906 5.88681 2.89909 5.88681 2.89355 5.88681C1.27347 5.87791 0.00221474 4.59532 0 2.96565C0 2.15805 0.296775 1.40941 0.838278 0.857659C1.37978 0.30591 2.11507 0 2.91016 0H2.91349C3.70083 0 4.44608 0.314809 5.01306 0.887694C5.57117 1.45057 5.8768 2.18475 5.87238 2.95342C5.86352 4.54749 4.5081 5.88793 2.90906 5.88793V5.88681Z" fill="#999999"/>
</g>
<defs>
<clipPath id="clip0_4_323">
<rect width="24" height="24" fill="white"/>
</clipPath>
</defs>
</svg>
