<svg width="85" height="100" viewBox="0 0 85 100" fill="none" xmlns="http://www.w3.org/2000/svg">
<g clip-path="url(#clip0_4_264)">
<path d="M70.1688 33.5186V74.5019C70.1688 76.94 66.8218 80.1534 64.3914 80.1534H59.0231V94.7654C59.0231 95.6722 57.9798 97.5162 57.3384 98.1785C53.6273 102.017 46.651 99.3817 46.651 94.0522V80.1534H38.3695V94.0522C38.3695 99.3817 31.3942 102.017 27.6821 98.1785C27.0407 97.5152 25.9973 95.6722 25.9973 94.7654V80.1534H20.6291C18.1987 80.1534 14.8517 76.94 14.8517 74.5019V33.5186H70.1667H70.1688Z" fill="#0B0B0B"/>
<path d="M14.8537 31.2778C14.7177 21.9179 20.6966 13.269 28.9638 9.18048L24.5131 1.1409C24.197 0.0711341 25.535 -0.452543 26.0843 0.492929L30.4562 8.3756C36.9313 5.63088 44.1673 5.13063 50.9462 7.09493C52.1931 7.45662 53.3807 7.98335 54.6195 8.36032L58.9791 0.431799C59.5888 -0.478014 60.8971 0.174036 60.4767 1.2112L56.0577 9.18048C64.3238 13.2731 70.3038 21.9138 70.1678 31.2778H14.8537ZM29.4527 16.5374C26.5415 16.8543 26.784 21.3117 29.731 21.278C32.9941 21.2403 32.6514 16.19 29.4527 16.5374ZM55.1166 16.5374C51.6796 16.9001 52.723 22.1899 56.0607 21.1486C58.7111 20.3214 57.7885 16.2562 55.1166 16.5374Z" fill="#0B0B0B"/>
<path d="M78.0217 32.5302C81.7267 32.1288 84.6716 34.7207 84.999 38.3508V64.6294C84.5284 71.8305 74.6553 72.724 72.771 65.903C72.4376 56.6163 72.7015 47.2686 72.636 37.9606C72.9368 35.2118 75.2342 32.8318 78.0206 32.5302H78.0217Z" fill="#0B0B0B"/>
<path d="M5.42658 32.5304C8.62421 32.184 11.426 34.1065 12.2525 37.1793C12.5123 46.6952 12.4724 56.3017 12.2729 65.8216C10.669 72.1373 1.73591 72.1343 0.198471 65.7809C-0.185122 56.6114 0.121752 47.3625 0.0419648 38.1655C0.330426 35.3312 2.52764 32.8462 5.42658 32.5314V32.5304Z" fill="#0B0B0B"/>
</g>
<defs>
<clipPath id="clip0_4_264">
<rect width="85" height="100" fill="white"/>
</clipPath>
</defs>
</svg>
